<svg xmlns="http://www.w3.org/2000/svg" viewBox="0 0 512 512" role="img" aria-label="Maêve">
  <rect width="512" height="512" rx="96" fill="#050505"/>
  <path d="M128 123h74c34 0 63 13 84 36 21-23 50-36 84-36h74v75c0 74-53 127-127 127h-17c-9 0-16-7-16-16v-5c0-8 6-15 14-15h19c53 0 91-38 91-91v-39h-38c-53 0-91 38-91 91v98c0 10-8 18-18 18s-18-8-18-18v-98c0-53-38-91-91-91h-38v39c0 53 38 91 91 91h19c8 0 14 7 14 15v5c0 9-7 16-16 16h-17c-74 0-127-53-127-127z" fill="#d7a51f"/>
  <path d="M104 395h28l47 55 47-55h28v91h-26v-52l-41 49h-16l-41-49v52h-26zm184 0h82v23h-55v12h49v21h-49v12h57v23h-84zm118 0h82v23h-55v12h49v21h-49v12h57v23h-84z" fill="#d7a51f"/>
</svg>
